#N canvas 479 174 986 616 10;
#X obj 238 134 ctlin;
#X floatatom 180 202 5 0 0 0 - - -;
#X floatatom 251 202 5 0 0 0 - - -;
#X floatatom 344 204 5 0 0 0 - - -;
#X obj 265 250 hradio 15 1 0 9 empty empty empty 0 -8 0 10 -262144
-1 -1 6;
#X obj 265 230 - 1;
#X obj 251 338 route 1 2 3 4 5 6 7 8 9;
#X obj 251 304 pack i i;
#X obj 252 390 outlet;
#X obj 302 390 outlet;
#X obj 352 390 outlet;
#X obj 402 390 outlet;
#X obj 452 390 outlet;
#X obj 502 390 outlet;
#X obj 552 390 outlet;
#X obj 602 390 outlet;
#X obj 652 390 outlet;
#X obj 702 390 outlet;
#X text 387 203 channel (don't care);
#X text 413 248 last modified slider;
#X text 72 200 controller value;
#X obj 180 257 / 127;
#X floatatom 180 304 5 0 0 0 - - -;
#X connect 0 0 1 0;
#X connect 0 1 2 0;
#X connect 0 2 3 0;
#X connect 1 0 21 0;
#X connect 2 0 5 0;
#X connect 2 0 7 0;
#X connect 5 0 4 0;
#X connect 6 0 8 0;
#X connect 6 1 9 0;
#X connect 6 2 10 0;
#X connect 6 3 11 0;
#X connect 6 4 12 0;
#X connect 6 5 13 0;
#X connect 6 6 14 0;
#X connect 6 7 15 0;
#X connect 6 8 16 0;
#X connect 6 9 17 0;
#X connect 7 0 6 0;
#X connect 21 0 7 1;
#X connect 21 0 22 0;
